<svg xmlns="http://www.w3.org/2000/svg" xmlns:xlink="http://www.w3.org/1999/xlink" viewBox="0 0 360 132.01"><defs><linearGradient id="a" x1="-514.41" x2="-513.41" y1="441.55" y2="441.55" gradientTransform="scale(-28.3 28.3) rotate(-61.79 -624.439 -207.376)" gradientUnits="userSpaceOnUse"><stop offset="0" stop-color="#0070b6"/><stop offset="1" stop-color="#1d2c5e"/></linearGradient><linearGradient xlink:href="#a" id="d" x1="-496.36" x2="-495.36" y1="434.19" y2="434.19" gradientTransform="scale(24.9 -24.9) rotate(46.97 255.95 796.233)"/><linearGradient xlink:href="#a" id="e" x1="-515.38" x2="-514.38" y1="428.98" y2="428.98" gradientTransform="matrix(-2.03 -17.02 -17.02 2.03 6363.23 -9588.79)"/><linearGradient id="b" x1="-515.25" x2="-514.25" y1="425.54" y2="425.54" gradientTransform="matrix(-.81 -15.36 -15.36 .81 6412.57 -8211.7)" gradientUnits="userSpaceOnUse"><stop offset="0" stop-color="#125d9e"/><stop offset="1" stop-color="#1d2c5e"/></linearGradient><linearGradient xlink:href="#b" id="f" x1="-503.76" x2="-502.76" y1="464.07" y2="464.07" gradientTransform="scale(-33.5 33.5) rotate(57.84 163.81 681.911)"/><linearGradient id="c" x1="-489.12" x2="-488.12" y1="461.28" y2="461.28" gradientTransform="matrix(12.15 23.9 23.9 -12.15 -5003.51 17370.12)" gradientUnits="userSpaceOnUse"><stop offset="0" stop-color="#105fa1"/><stop offset="1" stop-color="#1d2c5e"/></linearGradient><linearGradient xlink:href="#c" id="g" x1="-492.79" x2="-491.79" y1="459.36" y2="459.36" gradientTransform="matrix(14.07 32.61 32.61 -14.07 -8015.46 22594.15)"/><linearGradient id="i" x1="2.95" x2="23.49" y1="116.54" y2="116.54" gradientTransform="matrix(1.04 0 0 -1.04 90.8 195.67)" gradientUnits="userSpaceOnUse"><stop offset="0" stop-color="#3c5aa6"/><stop offset="0.93" stop-color="#2b73b9"/><stop offset="1" stop-color="#2a75bb"/></linearGradient><clipPath id="h"><path d="M292 67.44a5.37 5.37 0 0 1 .18 1.52 5.31 5.31 0 0 1-.47 1.91c.54-.25 4.87-1.59 3.22-6.35 0 .14-3 2.92-2.93 2.92" style="fill:none"/></clipPath></defs><path d="M0 48.84 16.07 76l6.41-6.12L5 43.77Z" style="fill:url(#a)"/><path d="m238.55 27.52-.62 3.58 7.68-2.48-1-4.38Z" style="fill:#0071b9"/><path d="m193.78 3.11-24.73 28.35 7.19-2.07L199.78 0Z" style="fill:url(#d)"/><path d="m326.05 41.88 6.07-3.24-1.73 15.2ZM288.33 51.62l5.39 1.11 6.89-3.35-6-2.23Z" style="fill:#1d2c5e"/><path d="m102.33 35.49.87 17.61 7.52-3.05-2.25-17.86Z" style="fill:url(#e)"/><path d="m294.17 30.23-6.06 3.27.22 18.12 6.1-3.12 1.91-8.78Z" style="fill:url(#b)"/><path d="m293.34 52.78-6.68 59.27 10.67-2.1 2.09-60.37Z" style="fill:#312370"/><path d="m306.4 114.9.19 8 20.48 6.53 6.09-3.23-20.09-15.57-20.36-1.78-6 3.17ZM230.43 100.76l5-2.71 3.21 5.92 4.75-2.6.94 7.81 29.77 5.28 5.95-3.27-41-25-29.12 5-5.69 5.39Z" style="fill:#21386e"/><path d="m221 27.83-6 3.28-10.78 65.45 6-3.13 10.33-36.75Z" style="fill:url(#f)"/><path d="m173.39 36.6-4.74 2.53.4 1.58 11.3-7.18-4.94-5.3-6.36 3.23Z" style="fill:#1d2c5e"/><path d="m186.38 113.92-48.55-24 6.09-4.61 48.5 25.4Z" style="fill:#21386e"/><path d="M142.39 24.42 135 38.37l7.81-2.37 5.6-14.87Z" style="fill:#1d2c5e"/><path d="m75.66 82.05-6.21 4.27a99.12 99.12 0 0 0 3 11.74 26 26 0 0 0 5.77 8.72 22.28 22.28 0 0 0 9.38 5.45 26.27 26.27 0 0 0 21.27-3.56 40.14 40.14 0 0 0 5.55-4.25c-6.54 4-38.78-22.37-38.78-22.37Z" style="fill:url(#c)"/><path d="m108.88 51.66 5.66 62.49 23.15-3.42 6.19-3.25-28.72-59.56-5.91 2-6 3.19Z" style="fill:#1d2c5e"/><path d="M22.11 73.37 48 132l24.57-7.92 6-4-51-53.35-6.38 3.82L16.07 76Z" style="fill:url(#g)"/><path d="m278.39 101 .35 2.87a28.6 28.6 0 0 0 6.24-1.18c2.22-.76 7-2.91 8.87-4.49-.69.25-12 3.18-15.46 2.8M191.47 86.06l.93 4.64a35.65 35.65 0 0 0 13.43-5.11c2.64-1.56 5.53-3.93 6.44-4.56-.64.41-20.8 5-20.8 5Z" style="fill:#1d2c5e"/><path d="m54.69 126.45-1.92-4.26-24.52-54.72-.5-1.13-1.11.52-.75.34-4.36 2.14c-.65-1.08-1.71-2.89-2.46-4.14L9.2 48.52l-2.58-4.35 4.27-2.71a94.23 94.23 0 0 1 13.57-7.07A75.57 75.57 0 0 1 53.61 28a50.83 50.83 0 0 1 8.71.73A27.8 27.8 0 0 1 74.64 33a27.05 27.05 0 0 1 11.65 12.83 24.07 24.07 0 0 1 1.06 14.91l-.71 3.14L89.25 62a30.9 30.9 0 0 1 5.68-3.24 27.27 27.27 0 0 1 10.67-2.21 23.08 23.08 0 0 1 9.57 2l1.9.85-.19-2.07-.82-9-.14-1.42-1.38.36-4.16 1.07-.72-15.26 30.42-9.72-.24 11.86 2.29.59 6.64-12.73 19.9 17.65.83.73.81-.76a31.4 31.4 0 0 1 9.61-6.11l1.52-.62-1-1.27-3.59-4.38L199.66 2l12 17.85-18.35 9.85-4.07 2.19 4.62.09a28.18 28.18 0 0 1 21.65 10.35l1.91 2.35 1.22 1.51-2 2.17-1.36 1.44-4.57 4.89-.86.9.93.83 4.22 3.86 1.66 1.5.35-2.2 1.65-10.19.42-2.62.44-2.67 2.45-15h23l.17-1 .43-2.58h19.75l4.78 30.22.31 2 1.59-1.25a28.12 28.12 0 0 1 6.37-3.44 26.49 26.49 0 0 1 9.31-1.73 22.78 22.78 0 0 1 10.46 2.48 1.93 1.93 0 0 0 .37.21l1.48.59.21-1.6.35-3.29.12-1.08-1.06-.24-4-.9-.2-15.75L326 38.47l2.29 11.34h2.37L333 40.1l25.46 6.19-26 78.43-18.62-5.85-.13-7.23v-1l-1-.15-18.71-2.65 1-9.44.25-2.25-2 1a24.27 24.27 0 0 1-2.74 1.21 26.07 26.07 0 0 1-9.25 1.73 23.81 23.81 0 0 1-2.68-.15l-1.58-.17.25 1.57 1.31 8.31-27.11-4.78-1.42-12.33-.46-3.95-1.83 3.53-3.12 6L239 87.57l-1.73-3.19-.58 3.62-1.26 8.21-23.76-3.74 1.84-11.27.42-2.58-2.24 1.34A48 48 0 0 1 198 85.29a38.45 38.45 0 0 1-5.76.93l-1.11.09v22.38l-46.75-23.12-1.76-.87v21.78l-20.92 3.09-.88-9.5-.24-2.55-1.83 1.8a29.88 29.88 0 0 1-9.25 6.23 26.93 26.93 0 0 1-10.5 2.17 22.87 22.87 0 0 1-10-2.2 21.58 21.58 0 0 1-11.46-13.84 23.19 23.19 0 0 1-.67-9.16l.42-3.36-2.46 2.33a58 58 0 0 1-5.55 4.66l-.66.49.21.79 7 27.05 1.24 4.8-4.72 1.5L59.13 125Zm6-72.62a11.85 11.85 0 0 0-2.11.2l-.9.17-1.33.26.4 1.29.26.85L60.77 69l.38 1.2.56 1.8 1.4-1.25.94-.83c3.67-3.31 5-6.66 4.19-10.89a6.17 6.17 0 0 0-3.59-4.34 9.13 9.13 0 0 0-4-.86Zm101.71.41-2.4 2.31-6.25 6.07-1.36 1.32 1.77.69 6.7 2.58 2.06.8-.43-2.17a28.74 28.74 0 0 1-.43-8.3Zm27.28-6.9a9.38 9.38 0 0 0-8.19 13.88l.51 1 .82 1.53 1.15-1.29.74-.82 9.17-10.46.72-.83 1.11-1.35-1.65-.61L193 48a9.37 9.37 0 0 0-3.4-.64Z" style="fill:#ffcb05"/><path d="M203.65 62.83a1.61 1.61 0 0 0-.24.28l.28-.23ZM211.55 55.52l4.58-4.88-1.57 1.66.05-.21-1.39 1.46-4.57 4.86 4.29 3.86.77-4.8 2.13 1.91Z" style="fill:#7d7f68"/><path d="m211.55 55.52 4.29 3.86 1.65-10.19-1.36 1.45ZM154.59 63.49h.07Z" style="fill:#7d7f68"/><path d="M179.92 67.73c.37.37 0 .1.44.38l2.8-2a12.31 12.31 0 0 1-1.2-1c-4.06-3.7-3-12-.37-16.58-6.94 5.59-6.58 14.2-1.67 19.13" style="fill:#c7a008"/><path d="M213.71 72.39c-4.62 3.82-9.89 6.31-16.85 8a31.73 31.73 0 0 1-4.47.73c-11 1.09-20.32-4-23.84-12.21a17.41 17.41 0 0 1-1-3.08 21.79 21.79 0 0 1 3.18-18c.34-.48.7-.92 1.07-1.38-.17.15-.35.28-.5.41a23.39 23.39 0 0 0-3.47 3.86 21.73 21.73 0 0 0-3.17 18 17.25 17.25 0 0 0 1 3.07C169.16 80 178.44 85.1 189.47 84a31.5 31.5 0 0 0 4.48-.75c7-1.68 12.24-4.17 16.86-8a35.83 35.83 0 0 0 3.27-3l-.09-.09-.28.25M135.84 51.43l12.34-17.34-.5-.47-11.91 16.74ZM217.49 49.19l-1.65 10.19-2.13-1.91-.77 4.8-4.29-3.86 4.57-4.86 1.39-1.46-.05.21 1.57-1.66ZM202.23 20.61l4.32-1.85-7.9-10.14-2.59 3.61ZM82.54 45.74c-20-24.31-55.91-11.24-68.83.13l.51.87a83.59 83.59 0 0 1 9.39-4.63C36.45 36.63 48.69 35 58.5 36.73a23.33 23.33 0 0 1 10.34 3.57 22.11 22.11 0 0 1 9.74 10.52c3.48 8 .41 18.65-7.78 27.55 10.28-9.43 17.31-18.45 11.74-32.63ZM123.25 74.06a9.8 9.8 0 0 0-.33-1.32 16.61 16.61 0 0 0-6.7-9.42c-5.12-3.48-12.27-4.19-19.4-1.18a26.71 26.71 0 0 0-9.58 7.09 26.34 26.34 0 0 1 6.69-4.18c7.11-3 14.26-2.31 19.4 1.17a16.79 16.79 0 0 1 6.67 9.41c.12.43.22.88.32 1.34a20.33 20.33 0 0 1 .39 4.68A24.59 24.59 0 0 1 116 95c-.47.63-1 1.23-1.46 1.81a26.59 26.59 0 0 0 4.34-4.72 24.31 24.31 0 0 0 4.75-13.34 18.37 18.37 0 0 0-.39-4.68" style="fill:#c7a008"/><path d="M103.6 68.12s2.9-2.89 2.87-2.89c-3.66-.14-5.21 3.31-5.33 3.58a7.2 7.2 0 0 1 2.46-.69M110.49 72.34a5.2 5.2 0 0 1 .23 1.53 5.13 5.13 0 0 1-.48 2.16c.58-.3 4.81-2.35 3.17-6.7.09.13-3 3-2.92 3M93.86 74.76c0-1.79 3.06-6.13 4-7.57C93 70.26 91 74.41 91 77.67c0 5.6 4.92 10.1 10.8 10.1a13.74 13.74 0 0 0 11.2-6.86c-1.74 1.14-6.18 3.9-8.51 3.9-5.88 0-10.59-4.43-10.59-10M135.24 79.88l.07 22.65 3.6.21-.71-25.83ZM114.6 36.76l.07 2 17-5.08L133 55.39l2.84-4-.61-21.78ZM166.1 44.52l-16-14.68-1.92 4.25 14.09 13.23ZM163.67 71.89l-18.79-6.21-2.74 2.89 18.72 7.49a26 26 0 0 0 9.39 9.94 30.75 30.75 0 0 0 13.15 4.3v9.24l2.9 1.45.92-13.89ZM193.84 69.28a17.29 17.29 0 0 0 9.57-6.17c-1.72 1.41-10.34 3.29-11.79 3.78l-2.84 3a18.09 18.09 0 0 0 5.06-.63M185.45 37.33c-8.51 1.12-12.94 8.26-13.68 9.13a27.66 27.66 0 0 1 11.52-5.68c10.53-2.54 19.81.67 25.55 7.76l3.55-3c-5.68-7-16.41-10.75-26.94-8.21M214 72.14c1-.86 2.85-1.74 3.82-2.75l-11.4-10.18c-.87 1-1.66 2.76-2.72 3.66ZM272.45 99.42c-11.95-9.82-11.23-30.89-5.37-37.57l-5.26-33-11.52 1.46-.51 2.91h8.71l4.62 30c-5.88 6.71-8.71 15.69-6.75 23.91a21.81 21.81 0 0 0 11 14.48 18.66 18.66 0 0 0 1.75.83l.07.44 3.43.54s.36-3.67-.21-4ZM226.51 33.69 226 36.6h13.14L243 57.81l2.91-2.94-3.06-22.4ZM249 74.87l-4.24 11 1.05 2.85L251.88 72ZM236.41 68l-2.92 2.92-3.13 19.79 3 1.14ZM295.41 61.65a15.32 15.32 0 0 1 4.29 4.63 15.79 15.79 0 0 1 1.95 4.72c1.44 5.94-.28 12.38-4.06 17.54-.38.53-.8 1-1.2 1.53 1.54-1.32 20.2-15.09 2-33.16-20.06-6.61-27.65 6.47-28.35 7.3a24.77 24.77 0 0 1 7.21-4.3c6.78-2.58 13.46-1.68 18.19 1.71" style="fill:#c7a008"/><path d="M285.3 63c.06.13 2.88-2.94 2.94-2.94-3.57.15-5.28 1.87-5.1 2.67a4.43 4.43 0 0 0-.53 1 8.55 8.55 0 0 1 2.69-.73M292 67.44a5.37 5.37 0 0 1 .18 1.52 5.31 5.31 0 0 1-.47 1.91c.54-.25 4.87-1.59 3.22-6.35 0 .14-3 2.92-2.93 2.92" style="fill:#c7a008"/><g style="clip-path:url(#h)"><path d="M338.67 122.68v-3.17h-1.18v-.42h2.85v.42h-1.19v3.17ZM340.81 122.68v-3.59h.72l.85 2.54c.08.24.14.42.17.54 0-.14.11-.33.19-.58l.87-2.5h.64v3.59h-.46v-3l-1.05 3h-.43l-1-3.06v3.06Z"/></g><path d="M282.54 82.55c4 .17 8.5-2.31 11.7-6.69-8.21 1.68-16.85-12-16-13.33-3.11 2.25-5.85 6.59-6 9.62-.21 5.62 4.37 10.16 10.26 10.4M327.55 118.19l1.93 1.28L353 49l-17.58-4.07-.25 4.07 14.18 3.15ZM299.65 37.33l.15 3.94L318.5 45l7.19 34.13 2.92-2.93-6.86-34.49ZM314 76.23l-5.14 29.12 3 1L317 73.37ZM71.4 116l-8.74-31.68-3.21 2.24 8.11 30.38ZM69.13 68.35a66.65 66.65 0 0 1-9 7.94l-1.54-5-3.43-10.86L53 53.06l-2.1 2.7 2.14 7.38L56.44 74 58 79c3.49-2.25 8.56-6.47 11.15-10.66" style="fill:#c7a008"/><path d="M193 49.6c-2.75-1.06-6.67-.74-8.78 1.57a15.9 15.9 0 0 0-1.74 2.51 9.28 9.28 0 0 1 8.06-1.11ZM66.61 59.44a5.28 5.28 0 0 0-2.69-3.28 10.39 10.39 0 0 0-5.59-.46c.32 1.1.68 2.39.84 2.91a11.36 11.36 0 0 1 2.51.6 4.23 4.23 0 0 1 2.45 2.9 8.73 8.73 0 0 1-.6 5.89c2.5-2.45 3.71-5.12 3.08-8.56" style="fill:#7d7f68"/><path d="M71 59.4c-1.21-6.4-9.64-10-18-5.4l2.15 7.37 3.39 10.9 1.54 5c6.28-4.1 12.58-8.95 10.92-17.87Zm-8.3 9.91c-.91-3-2.91-9.41-2.91-9.41s-.4-1.38-.88-3a8 8 0 0 1 4.88.48 4.18 4.18 0 0 1 2.46 2.89c.69 3.71-.56 6.35-3.55 9Z" style="fill:#3c5aa6"/><path d="M197.42 49.17A11.45 11.45 0 1 0 182 66.07a10.84 10.84 0 0 0 1.2 1L198.23 50c-.27-.28-.53-.56-.81-.81Zm-14.23 12a7.4 7.4 0 0 1 9.17-10.45Z" style="fill:#3567b0"/><path d="m217.55 47.3-8.34 8 7.92 7.11Z" style="fill:#1e2d5f"/><path d="M294.91 64.52a5.32 5.32 0 0 1 .18 1.54c-.14 3.19-3.14 5.65-6.71 5.48s-6.37-2.83-6.23-6A6.06 6.06 0 0 1 288.2 60a10.2 10.2 0 0 0-1.95-.23c-6-.26-10.86 4-11.07 9.24-.23 5.63 4.29 10.23 10.17 10.48s10.87-4 11.1-9.61a9.16 9.16 0 0 0-1.54-5.4" style="fill:#3466af"/><path d="M113.63 71c0 3.2-2.91 5.76-6.48 5.76s-6.47-2.57-6.47-5.76a6 6 0 0 1 5.82-5.73 10.4 10.4 0 0 0-2-.18c-6 0-10.69 4.43-10.69 9.71 0 5.63 4.71 10 10.59 10s10.69-4.42 10.69-10a8.93 8.93 0 0 0-1.75-5.3 4.76 4.76 0 0 1 .24 1.5" style="fill:url(#i)"/><path d="m332.08 38.63-2.65 10.93L327 37.45l-32.81-7.22.23 18.24 4.94 1.11-.36 3.29a.48.48 0 0 1-.14-.09 25.47 25.47 0 0 0-20.86-.86 28.4 28.4 0 0 0-6.65 3.59l-4.95-31.25h-21.85l-.6 3.6H221l-2.62 16.06-1.91-2.35a29.38 29.38 0 0 0-22.57-10.8l19.5-10.48L199.78 0l-24.56 28.31 4.24 5.17a32.32 32.32 0 0 0-10 6.35l-21.04-18.69-7.37 14.12.28-13.57-32.93 10.52.85 17.7 5.6-1.46.83 9a26.61 26.61 0 0 0-21.24.21 31.42 31.42 0 0 0-5.9 3.34 25.12 25.12 0 0 0-1.14-15.65A28.22 28.22 0 0 0 75.31 32a29 29 0 0 0-12.78-4.55c-11.4-2-25.09.05-38.55 5.79a94.48 94.48 0 0 0-13.74 7.17L5 43.77l3.18 5.37L18 65.82l3 5.11 5.4-2.63.74-.34 24.52 54.73L54 128l5.47-1.77 13.27-4.25 5.81-1.85-1.53-5.92-7-27a58.94 58.94 0 0 0 5.67-4.76 24.32 24.32 0 0 0 .7 9.64 22.73 22.73 0 0 0 12.09 14.6c6.44 3.1 14.29 3.1 21.56 0a31.23 31.23 0 0 0 9.62-6.48l1 10.77 23.24-3.42V86.73l48.54 24V87.42a38.07 38.07 0 0 0 5.94-1 49.46 49.46 0 0 0 14-5.49l-2 12.47 26.17 4.12 1.44-9.42 6.84 12.63 4.18-8.05 1.52 13.22 29.68 5.23-1.58-10a26.9 26.9 0 0 0 12.37-1.6 28.14 28.14 0 0 0 2.87-1.27l-1.19 10.62 19.75 2.78.15 8.11 20.6 6.46L360 45.41Zm-115.95 12 1.36-1.45-1.65 10.19-4.28-3.86ZM198.74 9l7.19 9.77L185.37 29 184 26.81ZM62.62 84.33l8.2 31.47-13.28 4.2L30.3 59.21c-1.48.78-4.21 2.08-6.73 3.31l-9.86-16.66a86.72 86.72 0 0 1 12.8-6.66c12.84-5.46 25.09-7.09 34.89-5.36a23.38 23.38 0 0 1 10.35 3.55 22.09 22.09 0 0 1 9.73 10.52c4.75 10.96-3.18 26.74-18.86 36.42Zm61-5.6a24.31 24.31 0 0 1-4.75 13.35 26.62 26.62 0 0 1-11.07 9c-11.52 4.88-23 0-26.11-10.93-3-10.57 4-23.16 15.11-28 7.13-3 14.28-2.3 19.4 1.18a16.64 16.64 0 0 1 6.71 9.42 12.08 12.08 0 0 1 .32 1.32 18.33 18.33 0 0 1 .39 4.67ZM186.3 101l-48.16-24.11.08 25.24-12.46 1.7-.87-10.41c3.85-6.59 5.26-14.37 3.25-21.5a22.58 22.58 0 0 0-5.91-10l-1.78-21.22-5.6 1.46-.25-5.37 20-6 1.23 20.64 14.74-20.71L165 44.44l-20.16 21.24 18.93 7.49a26.16 26.16 0 0 0 9.39 9.92 30.76 30.76 0 0 0 13.15 4.31Zm-25-34.91-6.7-2.58 6.25-6.07a29.9 29.9 0 0 0 .45 8.65Zm52.42 6.32c-4.62 3.82-9.89 6.31-16.85 8a31.73 31.73 0 0 1-4.47.73c-11 1.09-20.32-4-23.84-12.21a17.41 17.41 0 0 1-1-3.08A21.64 21.64 0 0 1 174.17 44a27.75 27.75 0 0 1 12-6.1c10.52-2.54 19.79.68 25.48 7.65l-20.03 21.32a14.43 14.43 0 0 0 5.12-.48c4.77-1.17 7.45-3.7 9.81-6.46l8 7.21 2.45 2.19a42.63 42.63 0 0 1-3.28 3.06Zm42.56 28.49L251.9 72l-6.17 16-9.24-20h-.1l-3.65 23.08-15.4-2.68 2.16-12.88c.59-.54 1.16-1.09 1.72-1.67l5-5.14-4.85-4.34 5.15-30.67h15.54l3.89 21.23 4.36-24.61h11.11l4.61 30C260.16 67 257.3 76 259.27 84.18a21.86 21.86 0 0 0 11 14.51c.57.28 1.15.57 1.76.81l.58 3.88Zm38.37-9.42a24.07 24.07 0 0 1-5.58 3 20.83 20.83 0 0 1-11.42 1.13 17.11 17.11 0 0 1-6.65-2.87 16.52 16.52 0 0 1-6.37-9.68 20.67 20.67 0 0 1 2.59-15 27.05 27.05 0 0 1 5.08-6.27 25.37 25.37 0 0 1 7.8-4.81c6.79-2.53 13.49-1.66 18.2 1.73a16.08 16.08 0 0 1 4.31 4.61 16.47 16.47 0 0 1 1.93 4.75c1.44 6-.28 12.39-4.05 17.55a26 26 0 0 1-5.86 5.8Zm34.68 27.24-11.39-3.39-1-42-5.73 32.39-12.42-2 .89-9.33c8.11-6.85 12.41-17.67 10.05-27.47a21.46 21.46 0 0 0-6.41-11l1.05-11-4.7-1.26.32-5.87 21.4 4.3 7.2 34.13L336 45.67l16.28 3.59Z" style="fill:#3564ad"/></svg>