<svg width="572" height="528" viewBox="0 0 572 528" fill="none" xmlns="http://www.w3.org/2000/svg">
<path d="M279.084 525.298C281.169 526.63 283.545 527.296 285.921 527.296C288.297 527.296 290.675 526.63 292.759 525.298C429.623 437.873 516.546 344.678 558.497 240.388C568.806 214.764 573.28 186.241 571.436 157.902C569.587 129.5 561.418 101.742 547.811 77.6266C533.863 52.9096 511.862 31.6366 485.857 17.7266C458.468 3.07564 428.812 -2.66037 400.103 1.14163C335.991 9.63063 302.886 43.7546 285.921 74.1276C268.955 43.7556 235.849 9.63063 171.738 1.14163C143.025 -2.66037 113.375 3.07664 85.9854 17.7266C59.9814 31.6366 37.9785 52.9096 24.0295 77.6266C10.4235 101.741 2.25448 129.5 0.405485 157.901C-1.43952 186.24 3.03545 214.763 13.3444 240.386C55.2974 344.679 142.221 437.874 279.084 525.298ZM25.7575 159.552C27.3595 134.935 34.4135 110.923 46.1555 90.1116C57.7635 69.5426 76.1645 51.7916 97.9695 40.1276C116.151 30.4016 135.413 25.4066 154.403 25.4066C159.093 25.4066 163.769 25.7116 168.405 26.3256C236.322 35.3176 263.221 76.6756 273.826 109.787C275.51 115.046 280.399 118.614 285.922 118.614C291.445 118.614 296.336 115.046 298.02 109.786C308.624 76.6746 335.52 35.3166 403.438 26.3246C426.843 23.2256 451.202 27.9986 473.874 40.1266C495.679 51.7906 514.08 69.5416 525.687 90.1096C537.43 110.921 544.483 134.934 546.086 159.55C547.685 184.115 543.828 208.789 534.93 230.904C495.714 328.395 414.226 416.308 285.922 499.487C157.618 416.309 76.1315 328.397 36.9135 230.904C28.0155 208.791 24.1585 184.117 25.7575 159.552Z" fill="black"/>
</svg>
